<svg xmlns="http://www.w3.org/2000/svg" width="46.125" height="46.125" viewBox="0 0 46.125 46.125">
  <metadata><?xpacket begin="﻿" id="W5M0MpCehiHzreSzNTczkc9d"?>
<x:xmpmeta xmlns:x="adobe:ns:meta/" x:xmptk="Adobe XMP Core 5.6-c142 79.160924, 2017/07/13-01:06:39        ">
   <rdf:RDF xmlns:rdf="http://www.w3.org/1999/02/22-rdf-syntax-ns#">
      <rdf:Description rdf:about=""/>
   </rdf:RDF>
</x:xmpmeta>
<?xpacket end="w"?></metadata>
<defs>
    <style>
      .cls-1 {
        fill: #fff;
        fill-rule: evenodd;
      }
    </style>
  </defs>
  <path class="cls-1" d="M413.676,39.157q-1.095,0-1.094,2.027v3.744c0.013,0.216.042,0.413,0.042,0.643,0,0.31-.026.583-0.042,0.872v3.3a4.128,4.128,0,0,0,.227,1.533,0.872,0.872,0,0,0,.893.547,0.786,0.786,0,0,0,.827-0.587,5.964,5.964,0,0,0,.186-1.706V41.238a4.944,4.944,0,0,0-.186-1.547A0.8,0.8,0,0,0,413.676,39.157Zm-5.879-4.84a1,1,0,0,0-.254-0.72,0.925,0.925,0,0,0-.706-0.267,1.022,1.022,0,0,0-.8.294,1.144,1.144,0,0,0-.268.8,3.333,3.333,0,0,0,1.281,2.32l0.784,0.753V35.891h-0.01Zm1.7-14.869A23.051,23.051,0,1,0,432.552,42.5,23.053,23.053,0,0,0,409.5,19.449Zm9.937,29.016a21.52,21.52,0,0,1-.267,3.747A4.279,4.279,0,0,1,418,54.558a3.769,3.769,0,0,1-2.747.894,3.442,3.442,0,0,1-2.667-.987v4.667h-4.747V52.407c-0.184.012-.349,0.045-0.545,0.045q-3.12,0-4.506-1.547T401.4,45.918v-2.24H405.9v2.854q0,1.707,1.093,1.706a0.953,0.953,0,0,0,.838-0.347V44.858c0-.014-0.006-0.033-0.01-0.047a4.08,4.08,0,0,0-.681-1.227q-0.414-.493-1.48-1.534l-1.974-1.973a6.812,6.812,0,0,1-2.293-4.961,6.574,6.574,0,0,1,1.347-4.466,4.953,4.953,0,0,1,3.933-1.534q3.093,0,4.454,1.64t1.36,5.134h-0.01l0.029,0.943a3.607,3.607,0,0,1,2.872-1.33,3.355,3.355,0,0,1,3.16,1.52,8.335,8.335,0,0,1,.894,4.213v7.227Z" transform="translate(-386.438 -19.438)"/>
</svg>
