<svg xmlns="http://www.w3.org/2000/svg" width="157.535" height="81.63" viewBox="0 0 157.535 81.63">
  <metadata><?xpacket begin="﻿" id="W5M0MpCehiHzreSzNTczkc9d"?>
<x:xmpmeta xmlns:x="adobe:ns:meta/" x:xmptk="Adobe XMP Core 5.6-c142 79.160924, 2017/07/13-01:06:39        ">
   <rdf:RDF xmlns:rdf="http://www.w3.org/1999/02/22-rdf-syntax-ns#">
      <rdf:Description rdf:about=""/>
   </rdf:RDF>
</x:xmpmeta>
<?xpacket end="w"?></metadata>
<defs>
    <style>
      .cls-1 {
        fill: #ffe500;
        fill-rule: evenodd;
      }
    </style>
  </defs>
  <path id="Composite_Path" data-name="Composite Path" class="cls-1" d="M1013.35,1021.54l-7.44-.99-2.96-8.23-4.108-.5L986.971,993.9l-21.709,22.215-9.193-19.9-5.127,1.616-20.554-32.056L920,994.865l-17.228,18.775-21.155,33.74H1039.17Zm-77.418,1.04v-13.39l-15.566,18.66-3.1-8.55-10.3,23.9-16.906.07,17.784-27.48,16.212-16.467,7.481-21.733v25.91l9.887-5.5Zm48.776,3.07-2.5-3.3-16.95,23.05,7.438-18.59-19.263,16.14,14.457-24.53,19.586-18.612-5.452,12.842,6.468-2.13Z" transform="translate(-881.625 -965.75)"/>
</svg>
