<svg xmlns="http://www.w3.org/2000/svg" width="34" height="26" viewBox="0 0 34 26">
  <metadata><?xpacket begin="﻿" id="W5M0MpCehiHzreSzNTczkc9d"?>
<x:xmpmeta xmlns:x="adobe:ns:meta/" x:xmptk="Adobe XMP Core 5.6-c142 79.160924, 2017/07/13-01:06:39        ">
   <rdf:RDF xmlns:rdf="http://www.w3.org/1999/02/22-rdf-syntax-ns#">
      <rdf:Description rdf:about=""/>
   </rdf:RDF>
</x:xmpmeta>
<?xpacket end="w"?></metadata>
<defs>
    <style>
      .cls-1 {
        fill: #ffe500;
        fill-rule: evenodd;
      }
    </style>
  </defs>
  <path id="Composite_Path" data-name="Composite Path" class="cls-1" d="M1528,31a2.4,2.4,0,0,0-2-2h-30a2.4,2.4,0,0,0-2,2,2.4,2.4,0,0,0,2,2h30A2.4,2.4,0,0,0,1528,31Zm-2,9h-24a2.489,2.489,0,0,0-2.02,2.064A2.363,2.363,0,0,0,1502,44h24a2.4,2.4,0,0,0,2-2A2.4,2.4,0,0,0,1526,40Zm0,11h-18a2.4,2.4,0,0,0-2,2,2.4,2.4,0,0,0,2,2h18a2.252,2.252,0,0,0,2-2A2.129,2.129,0,0,0,1526,51Z" transform="translate(-1494 -29)"/>
</svg>
